<?xml version="1.0" encoding="utf-8" standalone="no"?>
<!DOCTYPE svg PUBLIC "-//W3C//DTD SVG 1.1//EN"
  "http://www.w3.org/Graphics/SVG/1.1/DTD/svg11.dtd">
<svg xmlns:xlink="http://www.w3.org/1999/xlink" width="310.436214pt" height="314.757812pt" viewBox="0 0 310.436214 314.757812" xmlns="http://www.w3.org/2000/svg" version="1.1">
 <metadata>
  <rdf:RDF xmlns:dc="http://purl.org/dc/elements/1.1/" xmlns:cc="http://creativecommons.org/ns#" xmlns:rdf="http://www.w3.org/1999/02/22-rdf-syntax-ns#">
   <cc:Work>
    <dc:type rdf:resource="http://purl.org/dc/dcmitype/StillImage"/>
    <dc:date>2026-02-13T12:57:00.694050</dc:date>
    <dc:format>image/svg+xml</dc:format>
    <dc:creator>
     <cc:Agent>
      <dc:title>Matplotlib v3.10.8, https://matplotlib.org/</dc:title>
     </cc:Agent>
    </dc:creator>
   </cc:Work>
  </rdf:RDF>
 </metadata>
 <defs>
  <style type="text/css">*{stroke-linejoin: round; stroke-linecap: butt}</style>
 </defs>
 <g id="figure_1">
  <g id="patch_1">
   <path d="M 0 314.757812 
L 310.436214 314.757812 
L 310.436214 0 
L 0 0 
z
" style="fill: #eff1f5"/>
  </g>
  <g id="axes_1">
   <g id="patch_2">
    <path d="M 49.807188 271.798125 
L 299.287188 271.798125 
L 299.287188 22.318125 
L 49.807188 22.318125 
z
" style="fill: #eff1f5"/>
   </g>
   <g id="matplotlib.axis_1">
    <g id="xtick_1">
     <g id="line2d_1">
      <path d="M 54.60488 271.798125 
L 54.60488 22.318125 
" clip-path="url(#p8de271f4b3)" style="fill: none; stroke: #ccd0da; stroke-width: 0.6; stroke-linecap: round"/>
     </g>
     <g id="text_1">
      <text style="font-size: 11px; font-family: 'Arial', 'DejaVu Sans', 'Liberation Sans', 'Bitstream Vera Sans', sans-serif; text-anchor: middle; fill: #5c5f77" x="54.60488" y="289.656406" transform="rotate(-0 54.60488 289.656406)">0.0</text>
     </g>
    </g>
    <g id="xtick_2">
     <g id="line2d_2">
      <path d="M 102.581803 271.798125 
L 102.581803 22.318125 
" clip-path="url(#p8de271f4b3)" style="fill: none; stroke: #ccd0da; stroke-width: 0.6; stroke-linecap: round"/>
     </g>
     <g id="text_2">
      <text style="font-size: 11px; font-family: 'Arial', 'DejaVu Sans', 'Liberation Sans', 'Bitstream Vera Sans', sans-serif; text-anchor: middle; fill: #5c5f77" x="102.581803" y="289.656406" transform="rotate(-0 102.581803 289.656406)">0.2</text>
     </g>
    </g>
    <g id="xtick_3">
     <g id="line2d_3">
      <path d="M 150.558726 271.798125 
L 150.558726 22.318125 
" clip-path="url(#p8de271f4b3)" style="fill: none; stroke: #ccd0da; stroke-width: 0.6; stroke-linecap: round"/>
     </g>
     <g id="text_3">
      <text style="font-size: 11px; font-family: 'Arial', 'DejaVu Sans', 'Liberation Sans', 'Bitstream Vera Sans', sans-serif; text-anchor: middle; fill: #5c5f77" x="150.558726" y="289.656406" transform="rotate(-0 150.558726 289.656406)">0.4</text>
     </g>
    </g>
    <g id="xtick_4">
     <g id="line2d_4">
      <path d="M 198.535649 271.798125 
L 198.535649 22.318125 
" clip-path="url(#p8de271f4b3)" style="fill: none; stroke: #ccd0da; stroke-width: 0.6; stroke-linecap: round"/>
     </g>
     <g id="text_4">
      <text style="font-size: 11px; font-family: 'Arial', 'DejaVu Sans', 'Liberation Sans', 'Bitstream Vera Sans', sans-serif; text-anchor: middle; fill: #5c5f77" x="198.535649" y="289.656406" transform="rotate(-0 198.535649 289.656406)">0.6</text>
     </g>
    </g>
    <g id="xtick_5">
     <g id="line2d_5">
      <path d="M 246.512572 271.798125 
L 246.512572 22.318125 
" clip-path="url(#p8de271f4b3)" style="fill: none; stroke: #ccd0da; stroke-width: 0.6; stroke-linecap: round"/>
     </g>
     <g id="text_5">
      <text style="font-size: 11px; font-family: 'Arial', 'DejaVu Sans', 'Liberation Sans', 'Bitstream Vera Sans', sans-serif; text-anchor: middle; fill: #5c5f77" x="246.512572" y="289.656406" transform="rotate(-0 246.512572 289.656406)">0.8</text>
     </g>
    </g>
    <g id="xtick_6">
     <g id="line2d_6">
      <path d="M 294.489495 271.798125 
L 294.489495 22.318125 
" clip-path="url(#p8de271f4b3)" style="fill: none; stroke: #ccd0da; stroke-width: 0.6; stroke-linecap: round"/>
     </g>
     <g id="text_6">
      <text style="font-size: 11px; font-family: 'Arial', 'DejaVu Sans', 'Liberation Sans', 'Bitstream Vera Sans', sans-serif; text-anchor: middle; fill: #5c5f77" x="294.489495" y="289.656406" transform="rotate(-0 294.489495 289.656406)">1.0</text>
     </g>
    </g>
    <g id="text_7">
     <text style="font-size: 12px; font-family: 'Arial', 'DejaVu Sans', 'Liberation Sans', 'Bitstream Vera Sans', sans-serif; text-anchor: middle; fill: #4c4f69" x="174.547188" y="305.062187" transform="rotate(-0 174.547188 305.062187)">False positive rate</text>
    </g>
   </g>
   <g id="matplotlib.axis_2">
    <g id="ytick_1">
     <g id="line2d_7">
      <path d="M 49.807188 267.000433 
L 299.287188 267.000433 
" clip-path="url(#p8de271f4b3)" style="fill: none; stroke: #ccd0da; stroke-width: 0.6; stroke-linecap: round"/>
     </g>
     <g id="text_8">
      <text style="font-size: 11px; font-family: 'Arial', 'DejaVu Sans', 'Liberation Sans', 'Bitstream Vera Sans', sans-serif; text-anchor: end; fill: #5c5f77" x="40.307188" y="271.179573" transform="rotate(-0 40.307188 271.179573)">0.0</text>
     </g>
    </g>
    <g id="ytick_2">
     <g id="line2d_8">
      <path d="M 49.807188 219.02351 
L 299.287188 219.02351 
" clip-path="url(#p8de271f4b3)" style="fill: none; stroke: #ccd0da; stroke-width: 0.6; stroke-linecap: round"/>
     </g>
     <g id="text_9">
      <text style="font-size: 11px; font-family: 'Arial', 'DejaVu Sans', 'Liberation Sans', 'Bitstream Vera Sans', sans-serif; text-anchor: end; fill: #5c5f77" x="40.307188" y="223.20265" transform="rotate(-0 40.307188 223.20265)">0.2</text>
     </g>
    </g>
    <g id="ytick_3">
     <g id="line2d_9">
      <path d="M 49.807188 171.046587 
L 299.287188 171.046587 
" clip-path="url(#p8de271f4b3)" style="fill: none; stroke: #ccd0da; stroke-width: 0.6; stroke-linecap: round"/>
     </g>
     <g id="text_10">
      <text style="font-size: 11px; font-family: 'Arial', 'DejaVu Sans', 'Liberation Sans', 'Bitstream Vera Sans', sans-serif; text-anchor: end; fill: #5c5f77" x="40.307188" y="175.225727" transform="rotate(-0 40.307188 175.225727)">0.4</text>
     </g>
    </g>
    <g id="ytick_4">
     <g id="line2d_10">
      <path d="M 49.807188 123.069663 
L 299.287188 123.069663 
" clip-path="url(#p8de271f4b3)" style="fill: none; stroke: #ccd0da; stroke-width: 0.6; stroke-linecap: round"/>
     </g>
     <g id="text_11">
      <text style="font-size: 11px; font-family: 'Arial', 'DejaVu Sans', 'Liberation Sans', 'Bitstream Vera Sans', sans-serif; text-anchor: end; fill: #5c5f77" x="40.307188" y="127.248804" transform="rotate(-0 40.307188 127.248804)">0.6</text>
     </g>
    </g>
    <g id="ytick_5">
     <g id="line2d_11">
      <path d="M 49.807188 75.09274 
L 299.287188 75.09274 
" clip-path="url(#p8de271f4b3)" style="fill: none; stroke: #ccd0da; stroke-width: 0.6; stroke-linecap: round"/>
     </g>
     <g id="text_12">
      <text style="font-size: 11px; font-family: 'Arial', 'DejaVu Sans', 'Liberation Sans', 'Bitstream Vera Sans', sans-serif; text-anchor: end; fill: #5c5f77" x="40.307188" y="79.271881" transform="rotate(-0 40.307188 79.271881)">0.8</text>
     </g>
    </g>
    <g id="ytick_6">
     <g id="line2d_12">
      <path d="M 49.807188 27.115817 
L 299.287188 27.115817 
" clip-path="url(#p8de271f4b3)" style="fill: none; stroke: #ccd0da; stroke-width: 0.6; stroke-linecap: round"/>
     </g>
     <g id="text_13">
      <text style="font-size: 11px; font-family: 'Arial', 'DejaVu Sans', 'Liberation Sans', 'Bitstream Vera Sans', sans-serif; text-anchor: end; fill: #5c5f77" x="40.307188" y="31.294958" transform="rotate(-0 40.307188 31.294958)">1.0</text>
     </g>
    </g>
    <g id="text_14">
     <text style="font-size: 12px; font-family: 'Arial', 'DejaVu Sans', 'Liberation Sans', 'Bitstream Vera Sans', sans-serif; text-anchor: middle; fill: #4c4f69" x="16.318125" y="147.058125" transform="rotate(-90 16.318125 147.058125)">True positive rate (Recall)</text>
    </g>
   </g>
   <g id="line2d_13">
    <path d="M 54.60488 267.000433 
L 75.097535 263.808669 
L 93.17929 260.77449 
L 110.055595 257.725824 
L 125.726449 254.67462 
L 140.191853 251.636281 
L 153.451807 248.630396 
L 165.50631 245.681514 
L 176.355363 242.81989 
L 187.204416 239.725449 
L 196.848019 236.742802 
L 205.286171 233.91994 
L 213.724323 230.860205 
L 220.957025 228.013029 
L 228.189727 224.916979 
L 234.216979 222.109228 
L 240.24423 219.051761 
L 245.066032 216.390276 
L 249.887833 213.498129 
L 254.709634 210.326809 
L 258.325985 207.726163 
L 261.942336 204.89422 
L 265.558687 201.780911 
L 269.175038 198.317224 
L 271.585939 195.766256 
L 273.99684 192.97586 
L 276.40774 189.890975 
L 278.818641 186.434218 
L 281.229542 182.491603 
L 283.640442 177.884386 
L 284.845893 175.244081 
L 286.051343 172.306631 
L 287.256793 168.987958 
L 288.462244 165.16058 
L 289.667694 160.616484 
L 290.873144 154.97815 
L 292.078595 147.433355 
L 293.284045 135.552053 
L 294.489495 27.115817 
L 294.489495 27.115817 
" clip-path="url(#p8de271f4b3)" style="fill: none; stroke: #1e66f5; stroke-width: 2; stroke-linecap: round"/>
   </g>
   <g id="line2d_14">
    <path d="M 54.60488 267.000433 
L 70.275734 261.394811 
L 84.741138 255.989605 
L 99.206542 250.336316 
L 112.466496 244.909737 
L 124.520999 239.74874 
L 136.575502 234.343978 
L 147.424555 229.245344 
L 158.273608 223.895962 
L 167.917211 218.903218 
L 177.560813 213.656657 
L 185.998966 208.829947 
L 194.437118 203.752602 
L 202.87527 198.388688 
L 210.107972 193.529156 
L 217.340674 188.390728 
L 223.367926 183.863823 
L 229.395177 179.080139 
L 235.422429 173.999126 
L 240.24423 169.685834 
L 245.066032 165.115526 
L 249.887833 160.245355 
L 254.709634 155.019691 
L 258.325985 150.823382 
L 261.942336 146.344607 
L 265.558687 141.529444 
L 269.175038 136.305241 
L 272.791389 130.570272 
L 275.20229 126.39217 
L 277.613191 121.859144 
L 280.024091 116.88293 
L 282.434992 111.333603 
L 284.845893 105.006465 
L 286.051343 101.449925 
L 287.256793 97.545666 
L 288.462244 93.191753 
L 289.667694 88.227581 
L 290.873144 82.373957 
L 292.078595 75.063135 
L 293.284045 64.73452 
L 294.489495 27.115817 
L 294.489495 27.115817 
" clip-path="url(#p8de271f4b3)" style="fill: none; stroke: #fe640b; stroke-width: 2; stroke-linecap: round"/>
   </g>
   <g id="line2d_15">
    <path d="M 54.60488 267.000433 
L 71.481184 255.891321 
L 87.152039 245.309105 
L 101.617443 235.289529 
L 116.082847 225.003158 
L 129.3428 215.314364 
L 142.602754 205.349077 
L 154.657257 196.022017 
L 166.71176 186.408824 
L 177.560813 177.481775 
L 188.409866 168.259561 
L 198.053469 159.780825 
L 207.697072 150.999475 
L 216.135224 143.031335 
L 224.573376 134.756413 
L 231.806078 127.380982 
L 239.03878 119.700787 
L 246.271482 111.660615 
L 252.298734 104.631955 
L 258.325985 97.241437 
L 263.147787 91.012833 
L 267.969588 84.437989 
L 272.791389 77.428216 
L 276.40774 71.805494 
L 280.024091 65.77171 
L 283.640442 59.178919 
L 286.051343 54.346694 
L 288.462244 48.997383 
L 290.873144 42.814988 
L 292.078595 39.177764 
L 293.284045 34.802658 
L 294.489495 27.115817 
L 294.489495 27.115817 
" clip-path="url(#p8de271f4b3)" style="fill: none; stroke: #40a02b; stroke-width: 2; stroke-linecap: round"/>
   </g>
   <g id="line2d_16">
    <path d="M 54.60488 267.000433 
L 294.489495 27.115817 
" clip-path="url(#p8de271f4b3)" style="fill: none; stroke-dasharray: 3.7,1.6; stroke-dashoffset: 0; stroke: #6c6f85"/>
   </g>
   <g id="patch_3">
    <path d="M 49.807188 271.798125 
L 49.807188 22.318125 
" style="fill: none; stroke: #cccccc; stroke-width: 1.25; stroke-linejoin: miter; stroke-linecap: square"/>
   </g>
   <g id="patch_4">
    <path d="M 49.807188 271.798125 
L 299.287188 271.798125 
" style="fill: none; stroke: #cccccc; stroke-width: 1.25; stroke-linejoin: miter; stroke-linecap: square"/>
   </g>
   <g id="text_15">
    <text style="font-size: 12px; font-family: 'Arial', 'DejaVu Sans', 'Liberation Sans', 'Bitstream Vera Sans', sans-serif; text-anchor: middle; fill: #4c4f69" x="174.547188" y="16.318125" transform="rotate(-0 174.547188 16.318125)">ROC Curve</text>
   </g>
   <g id="legend_1">
    <g id="patch_5">
     <path d="M 134.813125 266.298125 
L 291.587188 266.298125 
Q 293.787188 266.298125 293.787188 264.098125 
L 293.787188 200.614375 
Q 293.787188 198.414375 291.587188 198.414375 
L 134.813125 198.414375 
Q 132.613125 198.414375 132.613125 200.614375 
L 132.613125 264.098125 
Q 132.613125 266.298125 134.813125 266.298125 
z
" style="fill: #eff1f5; opacity: 0.8; stroke: #cccccc; stroke-linejoin: miter"/>
    </g>
    <g id="line2d_17">
     <path d="M 137.013125 207.322656 
L 148.013125 207.322656 
L 159.013125 207.322656 
" style="fill: none; stroke: #1e66f5; stroke-width: 2; stroke-linecap: round"/>
    </g>
    <g id="text_16">
     <text style="font-size: 11px; font-family: 'Arial', 'DejaVu Sans', 'Liberation Sans', 'Bitstream Vera Sans', sans-serif; text-anchor: start; fill: #4c4f69" x="167.813125" y="211.172656" transform="rotate(-0 167.813125 211.172656)">Strong (AUC = 0.94)</text>
    </g>
    <g id="line2d_18">
     <path d="M 137.013125 223.468594 
L 148.013125 223.468594 
L 159.013125 223.468594 
" style="fill: none; stroke: #fe640b; stroke-width: 2; stroke-linecap: round"/>
    </g>
    <g id="text_17">
     <text style="font-size: 11px; font-family: 'Arial', 'DejaVu Sans', 'Liberation Sans', 'Bitstream Vera Sans', sans-serif; text-anchor: start; fill: #4c4f69" x="167.813125" y="227.318594" transform="rotate(-0 167.813125 227.318594)">Good (AUC = 0.85)</text>
    </g>
    <g id="line2d_19">
     <path d="M 137.013125 239.614531 
L 148.013125 239.614531 
L 159.013125 239.614531 
" style="fill: none; stroke: #40a02b; stroke-width: 2; stroke-linecap: round"/>
    </g>
    <g id="text_18">
     <text style="font-size: 11px; font-family: 'Arial', 'DejaVu Sans', 'Liberation Sans', 'Bitstream Vera Sans', sans-serif; text-anchor: start; fill: #4c4f69" x="167.813125" y="243.464531" transform="rotate(-0 167.813125 243.464531)">Weak (AUC = 0.68)</text>
    </g>
    <g id="line2d_20">
     <path d="M 137.013125 255.760469 
L 148.013125 255.760469 
L 159.013125 255.760469 
" style="fill: none; stroke-dasharray: 3.7,1.6; stroke-dashoffset: 0; stroke: #6c6f85"/>
    </g>
    <g id="text_19">
     <text style="font-size: 11px; font-family: 'Arial', 'DejaVu Sans', 'Liberation Sans', 'Bitstream Vera Sans', sans-serif; text-anchor: start; fill: #4c4f69" x="167.813125" y="259.610469" transform="rotate(-0 167.813125 259.610469)">Random (AUC = 0.50)</text>
    </g>
   </g>
  </g>
 </g>
 <defs>
  <clipPath id="p8de271f4b3">
   <rect x="49.807188" y="22.318125" width="249.48" height="249.48"/>
  </clipPath>
 </defs>
</svg>
